<svg xmlns="http://www.w3.org/2000/svg" xmlns:xlink="http://www.w3.org/1999/xlink" viewBox="0 0 265.818 47">
  <defs>
    <style>
      .cls-1 {
        fill: #663206;
      }

      .cls-2, .cls-3 {
        fill: #b26722;
      }

      .cls-3 {
        stroke: #e7c03c;
        stroke-width: 1.5px;
      }

      .cls-4 {
        opacity: 0.4;
        fill: url(#linear-gradient);
      }

      .cls-5 {
        fill: #fff;
        opacity: 0.5;
      }

      .cls-6 {
        stroke: none;
      }

      .cls-7 {
        fill: none;
      }
    </style>
    <linearGradient id="linear-gradient" x1="0.5" x2="0.5" y2="1" gradientUnits="objectBoundingBox">
      <stop offset="0" stop-color="#a4a4a4" stop-opacity="0.169"/>
      <stop offset="0" stop-color="#8a8a8a" stop-opacity="0.149"/>
      <stop offset="1" stop-color="#525252" stop-opacity="0.322"/>
    </linearGradient>
  </defs>
  <g id="enroll_button" data-name="enroll button" transform="translate(-93.621 -537)">
    <g id="button" transform="translate(-17.934 620)">
      <rect id="矩形_404" data-name="矩形 404" class="cls-1" width="265.818" height="44" rx="8" transform="translate(111.556 -80)"/>
      <rect id="矩形_402" data-name="矩形 402" class="cls-2" width="265.818" height="44" rx="8" transform="translate(111.556 -83)"/>
      <g id="矩形_403" data-name="矩形 403" class="cls-3" transform="translate(111.556 -83)">
        <rect class="cls-6" width="265.818" height="44" rx="8"/>
        <rect class="cls-7" x="0.75" y="0.75" width="264.318" height="42.5" rx="7.25"/>
      </g>
      <path id="矩形_405" data-name="矩形 405" class="cls-4" d="M8,0H257.818a8,8,0,0,1,8,8V24a0,0,0,0,1,0,0H0a0,0,0,0,1,0,0V8A8,8,0,0,1,8,0Z" transform="translate(111.556 -82)"/>
      <rect id="矩形_409" data-name="矩形 409" class="cls-5" width="16" height="2" rx="1" transform="translate(353 -79)"/>
      <rect id="矩形_411" data-name="矩形 411" class="cls-5" width="3" height="2" rx="1" transform="translate(348 -79)"/>
      <rect id="矩形_410" data-name="矩形 410" class="cls-5" width="3" height="2" rx="1" transform="translate(371 -74) rotate(-90)"/>
    </g>
  </g>
</svg>
